# xmcd
#
# Track frame offsets: 
#        150
#        25158
#        48168
#        71042
#        100982
#        121436
#        140491
#        151045
#        175849
#        193515
#
# Disc length: 2969 seconds
#
# Revision: 1
# Processed by: cddbd v1.5.2PL0 Copyright (c) Steve Scherf et al.
# Submitted via: ExactAudioCopyFreeDBPlugin 1.0
#
DISCID=810b970a
DTITLE=The Isley Brothers - Go for Your Guns
DYEAR=1977
DGENRE=Rhythm and Blues
TTITLE0=The Pride (Parts 1 and 2)
TTITLE1=Footsteps in the Dark (Parts 1 and 2)
TTITLE2=Tell Me When You Need it Again (Parts 1 and 2)
TTITLE3=Climbin' Up the Ladder (Parts 1 and 2)
TTITLE4=Voyage to Atlantis
TTITLE5=Livin' in the Life
TTITLE6=Go for Your Guns
TTITLE7=The Pride (disco mix)
TTITLE8=Voyage to Atlantis (mono) (single version)
TTITLE9=Livin' in the Life - Go for Your Guns (disco version)
EXTD=
EXTT0=
EXTT1=
EXTT2=
EXTT3=
EXTT4=
EXTT5=
EXTT6=
EXTT7=
EXTT8=
EXTT9=
PLAYORDER=
